<?xml version="1.0" encoding="utf-8"?>
<!-- Generator: Adobe Illustrator 19.0.0, SVG Export Plug-In . SVG Version: 6.00 Build 0)  -->
<!DOCTYPE svg PUBLIC "-//W3C//DTD SVG 1.1//EN" "http://www.w3.org/Graphics/SVG/1.1/DTD/svg11.dtd">
<svg version="1.1" id="Layer_1" xmlns="http://www.w3.org/2000/svg" xmlns:xlink="http://www.w3.org/1999/xlink" x="0px" y="0px"
	 width="48px" height="48px" viewBox="-933 665.5 48 48" style="enable-background:new -933 665.5 48 48;" xml:space="preserve">
<path d="M-891,669.5h-2v-2c0-1.1-0.9-2-2-2s-2,0.9-2,2v2h-24v-2c0-1.1-0.9-2-2-2s-2,0.9-2,2v2h-2c-3.3,0-6,2.7-6,6v32
	c0,3.3,2.7,6,6,6h36c3.3,0,6-2.7,6-6v-32C-885,672.2-887.7,669.5-891,669.5z M-889,707.5c0,1.1-0.9,2-2,2h-36c-1.1,0-2-0.9-2-2v-32
	c0-1.1,0.9-2,2-2h2v2c0,1.1,0.9,2,2,2s2-0.9,2-2v-2h24v2c0,1.1,0.9,2,2,2s2-0.9,2-2v-2h2c1.1,0,2,0.9,2,2V707.5z"/>
<path d="M-895,683.5h-28c-1.1,0-2,0.9-2,2s0.9,2,2,2h28c1.1,0,2-0.9,2-2S-893.9,683.5-895,683.5z"/>
</svg>
