<?xml version="1.0" encoding="utf-8"?>
<!-- Generator: Adobe Illustrator 19.0.0, SVG Export Plug-In . SVG Version: 6.00 Build 0)  -->
<!DOCTYPE svg PUBLIC "-//W3C//DTD SVG 1.1//EN" "http://www.w3.org/Graphics/SVG/1.1/DTD/svg11.dtd">
<svg version="1.1" id="Layer_1" xmlns="http://www.w3.org/2000/svg" xmlns:xlink="http://www.w3.org/1999/xlink" x="0px" y="0px"
	 width="89.4px" height="64.3px" viewBox="-943.7 655.9 89.4 64.3" style="enable-background:new -943.7 655.9 89.4 64.3;"
	 xml:space="preserve">
<path d="M-857.2,659.7c-3.3-3.9-8.6-3.9-15.2-3.9h-53.1c-7,0-12,0-15.3,3.8c-2.9,3.4-2.9,7.8-2.9,15.9v25c0,15.9,1.6,19.6,17.6,19.7
	l1.6,0c5.3,0,51.7,0,52.1,0c6.8,0,11.8,0,15.1-3.8c3-3.4,3-8.1,3-15.9v-25C-854.3,667.5-854.3,663.1-857.2,659.7z M-925.5,661.2
	h53.1c6.5,0,9.6,0.2,11.1,2c1.1,1.3,1.5,3.4,1.6,7.4h-78.6c0.1-4.1,0.4-6.1,1.6-7.4C-935.1,661.3-931.8,661.2-925.5,661.2z
	 M-861.3,712.8c-1.6,1.9-4.9,1.9-11.1,2c-0.4,0-32.9,0-52.1,0l-1.6,0c-12.3,0-12.3-0.6-12.3-14.3V684h78.7v16.5
	C-859.7,707.2-859.7,711-861.3,712.8z"/>
</svg>
