<?xml version="1.0" encoding="utf-8"?>
<!-- Generator: Adobe Illustrator 19.0.0, SVG Export Plug-In . SVG Version: 6.00 Build 0)  -->
<!DOCTYPE svg PUBLIC "-//W3C//DTD SVG 1.1//EN" "http://www.w3.org/Graphics/SVG/1.1/DTD/svg11.dtd">
<svg version="1.1" id="Layer_1" xmlns="http://www.w3.org/2000/svg" xmlns:xlink="http://www.w3.org/1999/xlink" x="0px" y="0px"
	 width="26.5px" height="41px" viewBox="-466 260 26.5 41" style="enable-background:new -466 260 26.5 41;" xml:space="preserve">
<path d="M-452.6,290.2c-0.7,0-1.2-0.5-1.2-1.2v-2.7V284v-4.8c0-0.7,0.5-1.2,1.2-1.2c0.7,0,1.2,0.5,1.2,1.2v4.7v2.3v2.8
	C-451.4,289.7-451.9,290.2-452.6,290.2z M-453.6,260c-6.8,0.5-12.3,6.1-12.4,13c0,3.7,1.4,7.1,3.8,9.6c0.2,0.2,0.4,0.5,0.5,0.8
	l1.5,6.1c0.1,0.5,0.6,0.9,1.1,0.9c0.1,0,0.3,0,0.5-0.1c0.5-0.2,0.7-0.8,0.7-1.4l-0.9-3.9l-0.2-0.8c-0.3-1.4-0.9-2.7-1.9-3.7
	c-0.5-0.6-0.9-1.2-1.3-1.8c-1.1-2-1.6-4.3-1.3-6.8c0.6-5.1,4.6-9,9.5-9.5c6.5-0.7,12.1,4.4,12.1,10.8c0,1.9-0.5,3.7-1.4,5.2
	c-0.4,0.7-0.8,1.3-1.3,1.8c-0.9,1.1-1.5,2.3-1.9,3.8l-0.2,0.8l-0.9,3.9c-0.1,0.6,0.1,1.2,0.7,1.4c0.1,0.1,0.3,0.1,0.5,0.1
	c0.5,0,1-0.4,1.1-0.9l1.5-6.1c0.1-0.3,0.2-0.6,0.5-0.8c2.3-2.4,3.8-5.7,3.8-9.3C-439.6,265.6-446,259.5-453.6,260z M-445.5,292.6
	c0,0.2,0,0.4-0.1,0.6c-0.2,0.4-0.3,0.8-0.4,1.2c-0.3,1.4-0.9,4-0.9,4c-0.6,1.5-2.1,2.6-3.7,2.6h-1.9h-0.2h-0.2h-1.7
	c-1.6,0-3.1-1.1-3.7-2.7v-0.2l-0.8-3.7c-0.5-0.4-0.7-0.9-0.9-1.4c0-0.1-0.1-0.2-0.1-0.4c0-0.6,0.6-1,1.2-1h12
	C-446.1,291.6-445.6,292-445.5,292.6z M-448.3,294h-5.1c-2,0-3.4,1.8-2.9,3.7c0.3,0.6,0.8,1,1.5,1h1.9h0.2h0.2h1.7
	c0.7,0,1.3-0.4,1.5-1L-448.3,294z"/>
</svg>
