<?xml version="1.0" encoding="utf-8"?>
<!-- Generator: Adobe Illustrator 19.0.0, SVG Export Plug-In . SVG Version: 6.00 Build 0)  -->
<!DOCTYPE svg PUBLIC "-//W3C//DTD SVG 1.1//EN" "http://www.w3.org/Graphics/SVG/1.1/DTD/svg11.dtd">
<svg version="1.1" id="Layer_1" xmlns="http://www.w3.org/2000/svg" xmlns:xlink="http://www.w3.org/1999/xlink" x="0px" y="0px"
	 width="26.5px" height="42.5px" viewBox="0 0 26.5 42.5" style="enable-background:new 0 0 26.5 42.5;" xml:space="preserve">
<g>
	<g id="XMLID_81_">
		<path id="XMLID_82_" d="M15.2,0.7c-0.4-0.5-1-0.7-1.5-0.7c-0.3,0-0.6,0-0.8,0.2c-0.8,0.4-1.3,1.3-1.1,2.2
			c1.3,6.7,0.6,10.4-0.4,11.7c-0.1,0.1-0.3,0.3-0.5,0.3c-0.1,0-0.5-0.1-0.8-0.5c-0.6-0.7-0.8-1.9-0.6-3.1c0-0.1,0-0.3,0-0.5
			c0-1.1-0.9-1.9-1.9-2c0,0,0,0-0.1,0H7.4c-0.3,0-0.7,0.1-1,0.3C6.3,8.8,6.2,8.9,6,9l0,0c-4.6,5.5-6.6,11.8-5.8,17.3
			c0.5,3.3,2,6,4.4,8.1c-2.1,0.1-3.8,1.9-3.8,4c0,2.2,1.8,4,4,4H22c2.2,0,4-1.8,4-4c0-2.2-1.8-4-4-4h-0.4c2.7-2.5,4.3-5.5,4.8-8.8
			C27.7,15.9,18.9,5.3,15.2,0.7z M22,36.4c1.1,0,2,0.9,2,2c0,1.1-0.9,2-2,2H4.7c-1.1,0-2-0.9-2-2c0-1.1,0.9-2,2-2H22z M13.8,34.4
			c0.7-0.4,1.3-0.9,1.9-1.6c1.2-1.3,2-3.1,2.4-5.1c0.8,3.1-0.9,5-1,5.1c-0.4,0.4-0.5,1-0.5,1.5H13.8z M18.6,34.2c0,0,5-5.6-2.2-12.8
			c0.9,7.3-2.2,11.6-5,11.6c-1.8,0-3.4-1.8-3.8-5.5c-1.3,4.1-0.8,4.9-0.2,6.5C-0.1,29.2,0.3,19,7.5,10.3c-0.7,3.4,1.3,6,3.3,6
			c2.4,0,4.8-3.7,2.9-14.3C19.2,8.8,32,24.8,18.6,34.2z M3.7,38.4c0,0.9,0.7,1.6,1.6,1.6c0.9,0,1.6-0.7,1.6-1.6
			c0-0.9-0.7-1.6-1.6-1.6C4.4,36.8,3.7,37.5,3.7,38.4z M10.6,40c0.9,0,1.6-0.7,1.6-1.6c0-0.9-0.7-1.6-1.6-1.6
			c-0.9,0-1.6,0.7-1.6,1.6C9,39.3,9.8,40,10.6,40z M16,40c0.9,0,1.6-0.7,1.6-1.6c0-0.9-0.7-1.6-1.6-1.6c-0.9,0-1.6,0.7-1.6,1.6
			C14.4,39.3,15.1,40,16,40z M21.4,40c0.9,0,1.6-0.7,1.6-1.6c0-0.9-0.7-1.6-1.6-1.6c-0.9,0-1.6,0.7-1.6,1.6
			C19.8,39.3,20.5,40,21.4,40z"/>
	</g>
</g>
</svg>
