<?xml version="1.0" encoding="utf-8"?>
<!-- Generator: Adobe Illustrator 19.0.0, SVG Export Plug-In . SVG Version: 6.00 Build 0)  -->
<!DOCTYPE svg PUBLIC "-//W3C//DTD SVG 1.1//EN" "http://www.w3.org/Graphics/SVG/1.1/DTD/svg11.dtd">
<svg version="1.1" id="Layer_1" xmlns="http://www.w3.org/2000/svg" xmlns:xlink="http://www.w3.org/1999/xlink" x="0px" y="0px"
	 width="86.3px" height="96.1px" viewBox="-941.8 639.6 86.3 96.1" style="enable-background:new -941.8 639.6 86.3 96.1;"
	 xml:space="preserve">
<path d="M-858.9,697.5l-11.8,3.2l-22.5-13l22.5-13l11.8,3.2c1.4,0.4,2.9-0.5,3.3-1.9c0.4-1.4-0.5-2.9-1.9-3.3l-6.6-1.8l6.1-3.5
	c1.3-0.7,1.7-2.4,1-3.7c-0.7-1.3-2.4-1.7-3.7-1l-6.1,3.5l1.8-6.6c0.4-1.4-0.5-2.9-1.9-3.3c-1.4-0.4-2.9,0.5-3.3,1.9l-3.2,11.8
	l-22.5,13v-26l8.7-8.7c1.1-1.1,1.1-2.8,0-3.8c-1.1-1.1-2.8-1.1-3.9,0l-4.9,4.9v-7.1c0-1.5-1-2.7-2.5-2.7c-1.5,0-2.5,1.2-2.5,2.7v7.1
	l-5-4.9c-1.1-1.1-2.8-1.1-3.9,0c-1.1,1.1-0.9,2.8,0.1,3.8l8.8,8.7v26l-22.6-13l-3.3-11.8c-0.4-1.4-1.9-2.3-3.3-1.9
	c-1.4,0.4-2.3,1.9-1.9,3.3l1.8,6.6l-6.1-3.5c-1.3-0.7-2.9-0.3-3.7,1c-0.7,1.3-0.3,2.9,1,3.7l6.1,3.5l-6.6,1.8
	c-1.4,0.4-2.3,1.9-1.9,3.3c0.4,1.4,1.9,2.3,3.3,1.9l11.8-3.2l22.5,13l-22.5,13l-11.8-3.2c-1.4-0.4-2.9,0.5-3.3,1.9
	c-0.4,1.4,0.5,2.9,1.9,3.3l6.6,1.8l-6.1,3.5c-1.3,0.7-1.7,2.4-1,3.7c0.7,1.3,2.4,1.7,3.7,1l6.1-3.5l-1.8,6.6
	c-0.4,1.4,0.5,2.9,1.9,3.3c1.4,0.4,2.9-0.5,3.3-1.9l3.3-11.8l22.6-13v26l-8.8,8.7c-1.1,1.1-1.1,2.8-0.1,3.8c1.1,1.1,2.9,1.1,3.9,0
	l5-4.9v7.1c0,1.5,1,2.7,2.5,2.7c1.5,0,2.5-1.2,2.5-2.7v-7.1l4.9,4.9c1.1,1.1,2.8,1.1,3.8,0c1.1-1.1,1-2.8,0-3.8l-8.7-8.7v-26
	l22.5,13l3.2,11.8c0.4,1.4,1.9,2.3,3.3,1.9c1.4-0.4,2.3-1.9,1.9-3.3l-1.8-6.6l6.1,3.5c1.3,0.7,2.9,0.3,3.7-1c0.7-1.3,0.3-2.9-1-3.7
	l-6.1-3.5l6.6-1.8c1.4-0.4,2.3-1.9,1.9-3.3C-856,697.9-857.4,697.1-858.9,697.5z"/>
</svg>
