<?xml version="1.0" encoding="utf-8"?>
<!-- Generator: Adobe Illustrator 16.0.0, SVG Export Plug-In . SVG Version: 6.00 Build 0)  -->
<!DOCTYPE svg PUBLIC "-//W3C//DTD SVG 1.1//EN" "http://www.w3.org/Graphics/SVG/1.1/DTD/svg11.dtd">
<svg version="1.1" id="Layer_1" xmlns="http://www.w3.org/2000/svg" xmlns:xlink="http://www.w3.org/1999/xlink" x="0px" y="0px"
	 width="335px" height="233.431px" viewBox="-446 608.307 335 233.431" enable-background="new -446 608.307 335 233.431"
	 xml:space="preserve">
<path fill="#FFFFFF" d="M-370.447,705.242c-13.899,0-25.303,11.404-25.303,25.304c0,13.898,11.404,25.303,25.303,25.303
	s25.303-11.404,25.303-25.303C-345.144,716.646-356.191,705.242-370.447,705.242z M-370.447,741.594
	c-6.059,0-11.048-4.989-11.048-11.048s4.989-11.048,11.048-11.048s11.048,4.989,11.048,11.048S-364.032,741.594-370.447,741.594z
	 M-308.792,705.242c-13.899,0-25.303,11.404-25.303,25.304c0,13.898,11.404,25.303,25.303,25.303s25.303-11.404,25.303-25.303
	C-283.489,716.646-294.894,705.242-308.792,705.242z M-308.792,741.594c-6.059,0-11.048-4.989-11.048-11.048
	s4.989-11.048,11.048-11.048s11.048,4.989,11.048,11.048S-302.734,741.594-308.792,741.594z M-247.495,705.242
	c-13.899,0-25.303,11.404-25.303,25.304c0,13.898,11.404,25.303,25.303,25.303s25.303-11.404,25.303-25.303
	C-221.835,716.646-233.239,705.242-247.495,705.242z M-247.495,741.594c-6.059,0-11.048-4.989-11.048-11.048
	s4.989-11.048,11.048-11.048s11.048,4.989,11.048,11.048C-236.09,736.604-241.08,741.594-247.495,741.594z M-111,702.392
	c0-52.032-61.654-94.085-137.208-94.085c-40.271,0-78.404,12.117-104.42,32.787C-406.798,653.567-446,688.849-446,730.189
	c0,26.729,16.394,51.676,44.548,69.495c0,11.048-2.851,21.739-7.84,31.718c-1.069,2.139-1.069,4.989,0,6.771
	c1.425,2.138,3.564,3.563,6.059,3.563c0.356,0,0.712,0,1.069,0c20.67,0,40.628-7.483,56.665-21.026
	c12.117,2.138,24.234,3.563,37.063,3.563c39.202,0,74.841-11.404,99.788-29.579c15.324,12.473,34.569,19.244,54.17,19.244
	c0.356,0,0.712,0,0.712,0c2.495,0,4.633-1.426,6.059-3.563c1.426-2.139,1.426-4.633,0.356-6.771
	c-4.989-9.979-7.84-20.67-7.84-31.718C-127.037,754.424-111,729.12-111,702.392z M-346.213,806.455
	c-2.138-0.356-4.633,0-6.415,1.782c-11.048,10.335-24.59,16.75-39.202,18.888c3.208-8.909,4.633-18.531,4.633-28.154
	c0-0.712,0-1.425,0-2.138v-1.069c0-2.494-1.425-4.633-3.564-6.059c-26.016-15.324-40.984-36.707-40.984-59.159
	c0-35.282,35.282-65.218,84.463-75.91l0,0c12.117-2.494,24.947-3.92,38.489-3.92c45.617,0,85.175,16.037,106.559,39.915
	c0.356,0.713,1.069,1.069,1.425,1.782c7.128,8.553,12.117,18.175,13.899,28.154v0.356c0.713,3.207,1.069,6.414,1.069,9.622
	c0,18.532-9.979,35.994-26.372,49.537c-0.356,0.356-1.069,0.713-1.425,1.069l0,0c-22.452,17.818-56.665,29.223-94.798,29.223
	C-321.622,810.375-334.096,808.95-346.213,806.455z M-176.218,706.312c-1.782-4.989-4.633-9.979-7.484-14.611
	c4.633,1.425,8.197,5.702,8.197,10.691C-175.505,703.817-175.862,704.886-176.218,706.312z M-166.239,761.907
	c-2.139,1.069-3.564,3.563-3.564,6.059v1.069c0,0.713,0,1.426,0,2.139c0,9.622,1.425,19.244,4.633,28.154
	c-11.76-1.782-22.808-6.415-32.431-13.543c16.394-15.681,26.016-34.569,26.016-55.239c0-2.495-0.356-4.989-0.356-7.484
	c6.771-4.633,10.691-12.117,10.691-20.67c0-13.899-11.404-25.304-25.303-25.304c-2.851,0-5.346,0.356-7.84,1.426
	c-24.591-25.303-66.644-42.053-114.399-42.053c-2.851,0-5.702,0-8.553,0.356c20.313-8.91,44.191-13.899,69.138-13.899
	c67.712,0,122.952,35.639,122.952,79.83C-125.255,724.844-140.224,746.583-166.239,761.907z"/>
</svg>
