<svg xmlns="http://www.w3.org/2000/svg" style="display: none;">

    <symbol id="icon-calendar" viewBox="0 0 512 512">
      <path d="m448 43l-21 0 0-22c0-11-10-21-22-21-11 0-21 10-21 21l0 22-256 0 0-22c0-11-10-21-21-21-12 0-22 10-22 21l0 22-21 0c-35 0-64 28-64 64l0 341c0 35 29 64 64 64l384 0c35 0 64-29 64-64l0-341c0-36-29-64-64-64z m21 405c0 12-9 21-21 21l-384 0c-12 0-21-9-21-21l0-341c0-12 9-22 21-22l21 0 0 22c0 11 10 21 22 21 11 0 21-10 21-21l0-22 256 0 0 22c0 11 10 21 21 21 12 0 22-10 22-21l0-22 21 0c12 0 21 10 21 22z m-64-256l-298 0c-12 0-22 10-22 21 0 12 10 22 22 22l298 0c12 0 22-10 22-22 0-11-10-21-22-21z"/>
    </symbol>

    <symbol id="icon-card" viewBox="0 0 512 512">
      <path d="m498 94c-19-23-50-23-88-23l-305 0c-41 0-69 0-88 22-17 20-17 45-17 92l0 143c0 92 9 113 101 114l9 0c31 0 298 0 300 0 39 0 68 0 87-22 17-20 17-47 17-92l0-143c0-46 0-72-16-91z m-393 8l305 0c38 0 55 2 64 12 6 7 9 19 9 42l-452 0c1-23 2-35 9-42 9-11 28-12 65-12z m369 297c-9 11-28 11-64 12-2 0-189 0-300 0l-9 0c-71 0-71-4-71-83l0-94 453 0 0 94c0 39 0 61-9 71z"/>
    </symbol>

    <symbol id="icon-electricity" viewBox="0 0 512 512">
      <path d="m255 377c-9 0-15-6-15-15l0-122c0-9 6-15 15-15 8 0 15 6 15 15l0 122c0 9-7 15-15 15z m-13-377c-85 6-153 76-155 162 0 47 18 89 48 120 2 3 5 6 6 10l19 76c1 7 7 12 14 12 1 0 3 0 6-2 6-2 9-10 9-17l-12-49-2-10c-4-17-11-34-24-46-6-7-11-15-16-22-14-25-20-54-16-85 7-64 57-113 118-119 81-9 151 55 151 135 0 24-6 46-17 65-5 9-10 16-16 22-12 14-19 29-24 48l-3 10-11 48c-1 8 1 15 9 18 1 1 4 1 6 1 6 0 13-5 14-11l19-76c1-4 2-8 6-10 29-30 47-71 47-116-1-94-81-170-176-164z m101 407c0 3 0 5-1 8-2 5-4 10-5 15-4 17-11 50-11 50-8 18-26 32-46 32l-50 0c-20 0-39-14-46-34l0-2-10-46c-7-5-9-12-12-18 0-1-1-2-1-5 0-7 8-12 15-12l150 0c10 0 16 5 17 12z m-35 18l-63 0c-25 0-43 22-36 46 3 7 10 12 18 12l50 0c9 0 16-5 19-12z"/>
    </symbol>

    <symbol id="icon-gaz" viewBox="0 0 512 512">
      <path d="m276 8c-5-6-12-8-18-8-3 0-7 0-9 2-10 5-16 16-13 27 15 79 7 123-5 139-1 1-4 3-6 3-1 0-6-1-9-5-8-9-10-23-8-37 0-2 0-4 0-6 0-13-10-23-22-24 0 0 0 0-1 0l-2 0c-3 0-8 1-12 3-1 3-2 4-4 5-55 66-79 141-69 206 6 39 23 72 52 97-25 1-45 22-45 47 0 26 21 48 47 48l205 0c26 0 48-22 48-48 0-26-22-47-48-47l-5 0c33-30 52-66 58-105 15-116-90-242-134-297z m81 425c13 0 24 11 24 24 0 13-11 24-24 24l-206 0c-13 0-24-11-24-24 0-13 11-24 24-24z m-97-23c8-5 15-11 22-19 14-16 24-37 29-61 9 37-11 59-12 61-5 4-6 11-6 17l-33 0z m57-3c0 0 59-66-26-152 10 87-27 138-60 138-21 0-40-22-45-66-16 49-10 59-3 78-89-57-84-179 2-282-9 40 15 71 39 71 28 0 57-44 34-170 66 81 218 271 59 383z m-178 50c0 11 9 19 19 19 11 0 19-8 19-19 0-10-8-19-19-19-10 0-19 9-19 19z m82 19c11 0 20-8 20-19 0-10-9-19-20-19-10 0-19 9-19 19 0 11 10 19 19 19z m65 0c10 0 19-8 19-19 0-10-9-19-19-19-11 0-19 9-19 19 0 11 8 19 19 19z m64 0c11 0 19-8 19-19 0-10-8-19-19-19-11 0-19 9-19 19 0 11 8 19 19 19z"/>
    </symbol>

    <symbol id="icon-meter" viewBox="0 0 512 512">
      <path d="m434 88c-100-98-262-95-359 6-96 99-96 255 0 354 19 19 41 35 65 48 12 5 27 0 34-12 5-12 1-26-10-32-20-10-38-24-54-40-80-80-80-209 0-289 80-80 209-80 289 0 80 80 80 210 0 289-16 16-33 29-53 38-12 7-17 21-11 34 6 12 21 16 33 10 126-62 177-214 115-340-12-23-29-46-49-66z m-201 129l-38-13c-2 0-4 2-4 3 0 0 0 0 0 1l13 38c-11 28 2 61 31 73 28 11 61-3 72-31 12-28-2-61-30-73-15-5-31-4-44 2z m-161 44c-4 0-7 3-7 7 0 4 3 7 7 7l28 0c5 0 7-3 7-7 0-4-2-7-7-7z m365 14c5 0 7-3 7-7 0-4-2-7-7-7l-30 0c-4 0-7 3-7 7 0 4 3 7 7 7z m-296-111c3 2 7 2 10 0 3-3 3-8 0-10l-20-20c-2-2-7-3-10-1-3 2-4 7-2 10 1 1 1 1 2 1z m217 217l20 21c3 3 8 2 10-1 2-3 2-6 0-9l-20-21c-3-3-8-2-10 1-2 3-2 6 0 9z m-96-267l0-28c0-4-2-7-7-7-4 0-7 3-7 7l0 28c0 4 3 7 7 7 5 0 7-4 7-7z m101 52c3 0 4-1 5-2l20-20c3-2 3-7 0-10-3-2-7-2-10 0l-20 20c-2 2-2 7 0 10 2 1 4 2 5 2z m-243 236c3 3 7 3 10 0l21-21c4-2 5-6 3-10-2-3-6-4-10-3 0 1-2 2-2 2l-21 21c-3 4-3 8-1 11z"/>
    </symbol>

    <symbol id="icon-mail" viewBox="0 0 512 512">
      <path d="m512 157c0-39-31-70-70-70l-372 0c-39 0-70 31-70 70l0 198c0 39 31 70 70 70l372 0c39 0 71-31 71-70-1 0-1-198-1-198z m-66-24l-185 129-186-129z m-371 246c-2 0-5-2-7-3l93-74c10-8 12-22 4-32-8-9-23-11-32-3l-87 67 0-171 201 139c3 2 8 4 13 4 5 0 6-2 10-4l196-139 0 171-82-68c-10-7-22-6-29 4-8 10-5 23 4 31l94 75c-2 1-4 3-7 3z"/>
    </symbol>

    <symbol id="icon-link" viewBox="0 0 512 512">
      <path d="m386 10c-6-6-15-10-23-10-9 0-18 4-24 10l-114 114c-13 13-13 34 0 47 13 13 34 13 47 0l91-90 68 68-90 90c-13 13-13 35 0 48 7 6 15 9 24 9 8 0 17-3 23-9l115-115c6-6 10-14 10-24 0-8-4-17-10-23z m-237 502c9 0 17-4 24-10l114-114c12-13 12-34 0-47-13-13-35-13-48 0l-90 90-69-68 91-91c13-13 13-34 0-47-13-13-34-13-47 0l-114 114c-6 6-10 15-10 24 0 8 4 17 10 23l116 116c6 6 14 10 23 10z m0-149c7 6 15 9 24 9 8 0 17-3 23-9l170-171c13-13 13-34 0-47-13-13-34-13-47 0l-170 170c-13 14-13 35 0 48z"/>
    </symbol>

    <symbol id="icon-property" viewBox="0 0 512 512">
      <path d="m82 497c-6 0-12-3-17-6-5-5-9-12-9-20l0-231 200-161 201 161 0 230c0 15-12 27-27 27l-346 0c-1 0-2 0-2 0z m15-41l319 0 0-196-160-128-159 128z m-75-211c-6 0-12-2-16-7-7-9-6-22 3-29l234-190c8-5 19-5 26 0l234 190c9 7 10 20 3 29-7 9-20 10-29 3l-221-179-221 179c-4 3-8 4-13 4z"/>
    </symbol>

    <symbol id="icon-snow" viewBox="0 0 512 512">
      <path d="m469 309l-63 17-120-69 120-70 63 17c7 2 15-2 17-10 3-7-2-15-10-17l-35-10 33-19c7-3 9-13 5-19-4-7-13-10-20-6l-32 19 9-35c2-8-2-16-10-18-7-2-15 3-17 10l-18 63-120 69 0-138 47-47c6-5 6-15 0-20-6-6-15-6-21 0l-26 26 0-38c0-8-5-14-13-14-8 0-14 6-14 14l0 38-26-26c-6-6-15-6-21 0-6 6-5 15 0 20l47 47 0 138-120-69-18-63c-2-7-10-12-17-10-8 2-13 10-11 18l10 35-33-19c-6-4-15-1-19 6-4 6-2 15 5 19l33 19-36 10c-7 2-12 10-10 17 2 8 10 12 18 10l63-17 120 70-120 69-63-17c-8-2-16 2-18 10-2 7 3 15 10 18l36 9-33 19c-7 4-9 13-5 20 3 6 13 9 19 5l33-19-10 35c-2 8 3 16 11 18 7 2 15-3 17-10l18-63 120-69 0 138-47 47c-6 6-6 15 0 20 6 6 15 6 21 0l26-26 0 38c0 8 6 14 14 14 8 0 13-6 13-14l0-38 26 26c6 6 15 6 20 0 6-6 6-15 0-20l-46-47 0-138 120 69 17 63c2 7 10 12 18 10 7-2 12-10 10-18l-10-35 33 19c7 4 15 1 19-5 4-7 2-16-5-20l-32-19 35-9c7-3 12-11 10-18-2-8-9-12-17-10z"/>
    </symbol>

    <symbol id="icon-statements" viewBox="0 0 512 512">
      <path d="m171 170l43 0c12 0 21-9 21-21 0-12-9-21-21-21l-43 0c-12 0-21 9-21 21 0 11 9 21 21 21z m0 85l171 0c12 0 21-9 21-21 0-12-9-21-21-21l-171 0c-12 0-21 9-21 21 0 12 9 21 21 21z m0 85l171 0c12 0 21-9 21-21 0-12-9-21-21-21l-171 0c-12 0-21 9-21 21 0 12 9 21 21 21z m128 43l-128 0c-12 0-21 9-21 21 0 12 9 22 21 22l128 0c12 0 21-10 21-22 0-11-9-21-21-21z m143-249l-128-128c-4-4-9-6-15-6l-214 0c-12 0-21 9-21 21l0 470c0 12 9 21 21 21l342 0c12 0 21-9 21-21l0-342c1-6-1-11-6-15z m-122-62l55 56-55 0z m-85-30c23 0 43 19 43 42l0 65c0 12 9 21 21 21l106 0 0 299-298 0 0-427z"/>
    </symbol>

    <symbol id="icon-usage" viewBox="0 0 512 512">
      <path d="m129 396c-14 0-25-11-25-24l0-299c0-14 11-25 25-25 13 0 24 11 24 25l0 299c0 13-11 24-24 24z m104 0c-13 0-24-11-24-24l0-229c0-14 11-25 24-25 14 0 25 11 25 25l0 229c0 13-11 24-25 24z m105 0c-13 0-24-11-24-24l0-90c0-13 11-24 24-24 13 0 24 11 24 24l0 90c0 13-11 24-24 24z m105 0c-13 0-25-11-25-24l0-160c0-13 12-24 25-24 13 0 24 11 24 24l0 160c0 13-11 24-24 24z m-416 95c-13 0-24-11-24-24l0-422c0-13 11-24 24-24 14 0 25 11 25 24l0 422c0 13-11 24-25 24z m458 0l-458 0c-13 0-24-11-24-24 0-14 11-25 24-25l458 0c13 0 24 11 24 25 0 13-11 24-24 24z"/>
    </symbol>

    <symbol id="icon-user" viewBox="0 0 512 512">
      <path d="m228 295c-82 0-148-66-148-147 0-82 66-148 148-148 81 0 147 66 147 148 0 81-66 147-147 147z m0-246c-55 0-99 45-99 99 0 54 44 98 99 98 54 0 98-44 98-98 0-54-44-99-98-99z m-200 450c-13 0-24-12-24-25 0-123 100-224 224-224 53 0 105 20 147 55 10 9 11 25 2 35-9 10-24 11-34 3-32-29-73-44-115-44-97 1-175 79-175 175 0 13-11 25-25 25z m456-47l-120 0c-13 0-25-11-25-24 0-14 12-25 25-25l120 0c13 0 24 11 24 25 0 13-11 24-24 24z m-60 60c-14 0-25-11-25-25l0-119c0-14 11-25 25-25 13 0 24 11 24 25l0 119c0 14-11 25-24 25z"/>
    </symbol>

    <symbol id="icon-user-1" viewBox="0 0 512 512">
      <path d="m343 275c39-27 65-72 65-123 0-84-68-151-151-151-83 0-151 67-151 151 0 51 25 95 64 122-83 35-141 117-141 211 0 14 11 25 25 25 14 0 25-10 25-25 0-97 79-177 177-178 97 1 176 81 176 178 0 14 12 25 25 25 14 0 25-11 25-25 1-94-57-176-139-210z m-86-223c55 0 101 45 101 100 0 56-46 101-101 101-55 0-100-45-100-101 0-55 45-100 100-100z"/>
    </symbol>

    <symbol id="icon-wallet" viewBox="0 0 512 512">
      <path d="m447 124c7 8 10 17 9 27-1 11-6 19-13 26l-120 100 112 0 0 38c-6 0-11-1-17-1 0 0 0 0-1 0l-77 0c-23 0-42 7-59 22 0 1-2 2-2 3-17 17-25 37-25 61 0 24 8 44 25 61 17 17 37 25 61 25l78 0c6 0 11 0 17-1-1 7-4 13-9 18-6 6-14 9-22 9l-335 0c-8 0-15-3-22-9-6-6-9-14-9-22l0-238c0-8 2-14 7-20 0-1 1-2 2-3 5-4 10-7 16-8 2-4 5-7 8-11l230-192c8-7 17-10 27-9 11 1 19 5 26 13z m-17 39c4-4 6-8 7-13 0-5-1-10-4-14l-49-57-236 198 146 0z m-102-143c-5 0-10 1-14 5l-229 193c-4 3-6 7-7 12-1 5 1 10 5 14l6 7 257-216-6-7c-3-5-7-7-12-8z m-35 339c4-4 8-8 12-10 10-5 20-8 31-8l78 0c12 1 22 1 29 1 2 0 5 0 7-1 2-1 3-3 4-5 2-2 2-4 2-6l0-32c4 2 7 4 11 6 4 4 6 9 7 15 0 0 0 1 0 2l0 97c-3 10-8 20-16 28-12 12-27 19-44 19l-77 0c-17 0-32-6-43-19-12-11-18-26-18-43-1-18 5-33 17-44z m142-117c0 1 0 1 0 2l-50 0 33-28c2 2 5 4 7 6 6 5 9 12 10 20z m-139 161c0 5 2 11 6 14 3 4 8 6 13 6 6 0 10-2 14-6 4-4 6-9 6-14 0-5-2-10-6-14-4-4-8-6-14-6-5 0-10 2-13 6-4 4-6 8-6 14z"/>
    </symbol>

    <symbol id="icon-wallet-1" viewBox="0 0 512 512">
      <path d="m505 207c-4-4-10-7-15-7l-1 0 0-51c0-21-14-39-33-45 4-4 6-9 6-14 0-26-21-47-47-47l-367 0c-26 0-47 21-47 47l0 333c0 26 21 47 47 47l393 0c26 0 46-21 46-47l0-69 1 0c11 0 20-9 20-20l0-113c1-5 0-10-3-14z m-463-117c0-3 2-6 6-6l367 0c3 0 6 3 6 6 0 4 2 8 4 12l-377 0c-4-2-6-5-6-9 0 0 0-3 0-3z m405 333c0 3-2 6-6 6l-393 0c-3 0-5-2-5-6l0-281 399 0c3 0 6 2 6 6l0 51-92 0c-42 1-75 35-75 77-1 42 32 77 74 77 1 0 1 0 1 0l91 0z m22-110l-119 0c-20-5-32-25-27-45 4-16 17-27 34-28l112 0z m-85-36c0 13-10 24-23 24-14 0-24-11-24-24 0-13 10-24 24-24 13 0 23 11 23 24z"/>
    </symbol>

    <symbol id="icon-callback-icon" viewBox="0 0 512 512">
      <path d="m242 0c-6 0-12 5-12 12 0 7 6 12 12 12l2 0c135 0 244 109 244 244 0 7 5 12 12 12 7 0 12-5 12-12 0-149-119-268-270-268z m0 70c-6 0-12 5-12 12 0 7 6 12 12 12l2 0c96 0 174 78 174 174 0 7 5 12 12 12 7 0 12-5 12-12 0-109-89-198-200-198z m-136 0c-5 0-10 0-16 2-10 3-22 10-30 18-43 43-65 81-58 123 7 43 37 87 95 145l57 58c58 58 102 91 145 96 42 5 80-17 123-58 8-9 15-21 18-32 5-14 2-28-7-38-23-22-52-43-81-58-12-5-28-3-38 5-9 5-17 12-24 21-8 6-14 13-19 17-3 3-6 5-10 5-5 0-10-2-15-7-12-9-22-17-33-27l-41-41c-10-11-20-21-29-33-3-3-5-10-6-15 0-4 3-7 6-10 4-5 11-11 17-19 7-7 14-15 21-22 8-11 10-24 5-38-15-29-36-56-58-82-3-7-10-8-17-10z m2 22c1 0 3 2 5 2 22 24 39 49 54 77 2 3 0 6-3 13-5 7-12 14-19 21-7 7-14 13-19 19-7 6-10 15-10 23 0 11 3 21 10 29 9 12 19 24 31 36l41 41 2 0c10 12 22 22 36 31 8 7 18 10 29 10 8-1 17-5 23-10 7-5 12-12 19-19 7-7 14-12 21-19 7-5 10-5 13-3 28 15 53 36 77 56 2 2 4 7 2 16-4 8-7 15-14 22-39 39-70 56-102 51-33-5-75-31-132-89l-59-58c-57-56-84-97-89-131-5-34 12-63 51-102 7-6 14-11 22-12 4-2 7-2 11-4z"/>
    </symbol>

    <symbol id="icon-chat-icon" viewBox="0 0 512 512">
      <path d="m116 225c-20 0-39 17-39 38 0 20 17 39 37 39 21 0 40-17 40-37 0-23-17-40-38-40z m0 55c-10 0-17-7-17-17 0-10 7-17 17-17 10 0 17 7 17 17 0 10-8 17-17 17z m94-55c-21 0-39 17-38 40 0 20 17 39 40 37 20 0 37-17 37-39 0-21-19-38-39-38z m0 55c-10 0-17-7-17-17 0-10 7-17 17-17 10 0 17 7 17 17 0 10-9 17-17 17z m94-55c-21 0-39 17-38 40 0 20 17 39 39 37 21 0 38-17 38-39 0-21-19-38-39-38z m0 55c-10 0-17-7-17-17 0-10 7-17 17-17 10 0 17 7 17 17 0 10-9 17-17 17z m208-58c0-79-94-143-210-143-58-2-113 15-160 49-82 19-142 73-142 135 0 41 26 78 68 106 0 17-5 32-12 47-1 4-1 7 0 11 2 3 5 5 9 5l2 0c32 0 63-10 87-31 18 3 37 5 56 5 55 2 107-15 152-44 24 19 53 29 83 29 7 0 11-5 11-12 0-2 0-2-2-4-7-15-12-30-12-47 44-28 70-67 70-106z m-360 157c-4 0-7 0-10 3-17 16-38 26-60 29 5-13 7-29 7-42l0-5c0-4-2-7-5-9-41-24-64-56-64-90 0-53 55-99 128-117 19-3 40-6 60-6 70 0 130 24 162 61 0 2 2 2 2 2 10 12 19 27 21 42 1 6 1 11 1 16-1 31-17 58-41 75l2 3c-43 31-94 46-145 45-19 0-39-4-58-7z m261-152c-3-9-7-15-12-22 7 2 14 8 12 17 0 2 0 3 0 5z m15 85c-3 2-5 5-5 9l0 5c0 15 2 29 7 43-19-4-36-11-49-21 23-20 39-51 39-83 0-4 0-7 0-12 17-12 22-36 10-53-10-14-27-21-44-16-48-42-111-66-176-65-5 0-9 0-14 0 34-13 70-22 106-20 104 0 188 55 188 121 0 34-22 68-62 92z"/>
    </symbol>

    <symbol id="icon-angle-up" viewBox="0 0 512 512">
      <path d="m399 338c0 3-1 5-3 7l-15 14c-1 2-4 3-6 3c-3 0-5-1-7-3l-112-112l-112 112c-2 2-4 3-7 3c-2 0-5-1-6-3l-15-14c-2-2-3-4-3-7c0-2 1-4 3-6l133-133c2-2 5-3 7-3c2 0 5 1 7 3l133 133c2 2 3 4 3 6z"/>
    </symbol>

</svg>
