<svg xmlns="http://www.w3.org/2000/svg" style="display: none;">
  
    <symbol id="icon-twitter" viewBox="0 0 512 512">
      <path d="m481 117c-13 18-28 34-46 47c0 3 0 7 0 12c0 25-3 50-11 74c-7 25-18 49-33 71c-14 23-32 43-52 61c-21 17-45 31-74 41c-29 11-60 16-92 16c-52 0-99-14-142-42c7 1 14 2 22 2c43 0 81-14 115-40c-20 0-38-6-54-18c-16-12-27-27-33-46c7 1 13 2 18 2c8 0 16-1 24-4c-21-4-39-15-53-31c-14-17-21-37-21-59l0-1c13 7 27 11 42 11c-13-8-23-19-30-32c-8-14-11-29-11-44c0-17 4-33 12-47c23 28 51 51 84 68c33 17 69 27 107 29c-2-8-3-15-3-22c0-25 9-47 27-65c18-18 40-27 66-27c26 0 49 10 67 29c21-4 40-11 59-22c-7 22-21 39-41 51c18-2 35-7 53-14z"/>
    </symbol>
  
    <symbol id="icon-instagram" viewBox="0 0 512 512">
      <path d="m426 407l0-185l-39 0c4 12 6 25 6 38c0 24-6 46-18 66c-13 20-29 36-50 48c-21 12-44 18-69 18c-37 0-69-13-96-39c-27-26-40-57-40-93c0-13 2-26 6-38l-41 0l0 185c0 5 2 10 5 13c4 3 8 5 13 5l305 0c5 0 9-2 13-5c3-3 5-8 5-13z m-81-152c0-23-9-44-26-60c-18-17-38-25-63-25c-24 0-45 8-62 25c-17 16-26 37-26 60c0 24 9 44 26 61c17 16 38 25 62 25c25 0 45-9 63-25c17-17 26-37 26-61z m81-103l0-47c0-5-2-10-6-14c-4-4-8-6-14-6l-50 0c-5 0-10 2-14 6c-4 4-5 9-5 14l0 47c0 6 1 10 5 14c4 4 9 6 14 6l50 0c6 0 10-2 14-6c4-4 6-8 6-14z m49-59l0 326c0 16-5 29-16 40c-11 11-24 16-40 16l-326 0c-16 0-29-5-40-16c-11-11-16-24-16-40l0-326c0-16 5-29 16-40c11-11 24-16 40-16l326 0c16 0 29 5 40 16c11 11 16 24 16 40z"/>
    </symbol>
  
    <symbol id="icon-facebook" viewBox="0 0 512 512">
      <path d="m292 159l74 0l-9 81l-65 0l0 235l-97 0l0-235l-49 0l0-81l49 0l0-49c0-35 8-61 24-79c17-18 44-26 81-26l65 0l0 81l-40 0c-8 0-14 0-18 2c-5 1-8 3-10 6c-2 4-3 7-4 10c0 3-1 8-1 14z"/>
    </symbol>
  
    <symbol id="icon-angle-down" viewBox="0 0 512 512">
      <path d="m399 210c0 3-1 5-3 7l-133 133c-2 2-5 3-7 3c-2 0-5-1-7-3l-133-133c-2-2-3-4-3-7c0-2 1-4 3-6l15-15c1-1 4-2 6-2c3 0 5 1 7 2l112 113l112-113c2-1 4-2 7-2c2 0 5 1 6 2l15 15c2 2 3 4 3 6z"/>
    </symbol>
  
    <symbol id="icon-angle-up" viewBox="0 0 512 512">
      <path d="m399 338c0 3-1 5-3 7l-15 14c-1 2-4 3-6 3c-3 0-5-1-7-3l-112-112l-112 112c-2 2-4 3-7 3c-2 0-5-1-6-3l-15-14c-2-2-3-4-3-7c0-2 1-4 3-6l133-133c2-2 5-3 7-3c2 0 5 1 7 3l133 133c2 2 3 4 3 6z"/>
    </symbol>
  
    <symbol id="icon-search" viewBox="0 0 512 512">
      <path d="m212 53c40 0 78 16 106 44 53 55 58 141 14 201l-12 18-18 12c-27 22-58 32-90 32-41 0-78-16-106-44-60-60-60-159 0-219 28-28 65-44 106-44m0-53c-51 0-104 19-143 60-80 81-80 212 0 293 39 41 92 60 143 60 44 0 86-14 123-42l121 122c5 5 12 8 19 8 7 0 14-3 19-8 11-11 11-30 0-41l-120-122c60-81 53-196-19-270-39-41-92-60-143-60z"/>
    </symbol>
  
    <symbol id="icon-menu" viewBox="0 0 512 512">
      <path d="m475 384l0 37c0 5-1 9-5 12c-4 4-8 6-13 6l-402 0c-5 0-9-2-13-6c-4-3-5-7-5-12l0-37c0-5 1-9 5-13c4-3 8-5 13-5l402 0c5 0 9 2 13 5c4 4 5 8 5 13z m0-146l0 36c0 5-1 10-5 13c-4 4-8 6-13 6l-402 0c-5 0-9-2-13-6c-4-3-5-8-5-13l0-36c0-5 1-10 5-13c4-4 8-6 13-6l402 0c5 0 9 2 13 6c4 3 5 8 5 13z m0-147l0 37c0 5-1 9-5 13c-4 3-8 5-13 5l-402 0c-5 0-9-2-13-5c-4-4-5-8-5-13l0-37c0-5 1-9 5-12c4-4 8-6 13-6l402 0c5 0 9 2 13 6c4 3 5 7 5 12z"/>
    </symbol>
  
    <symbol id="icon-cross" viewBox="0 0 512 512">
      <path d="m426 378c0 7-3 14-8 19l-39 39c-5 5-12 8-20 8c-7 0-14-3-19-8l-84-84l-84 84c-5 5-12 8-19 8c-8 0-15-3-20-8l-39-39c-5-5-8-12-8-19c0-8 3-14 8-20l84-84l-84-84c-5-5-8-12-8-19c0-8 3-14 8-20l39-38c5-6 12-8 20-8c7 0 14 2 19 8l84 84l84-84c5-6 12-8 19-8c8 0 15 2 20 8l39 38c5 6 8 12 8 20c0 7-3 14-8 19l-84 84l84 84c5 6 8 12 8 20z"/>
    </symbol>
  
    <symbol id="icon-calendar" viewBox="0 0 512 512">
      <path d="m448 43l-21 0 0-22c0-11-10-21-22-21-11 0-21 10-21 21l0 22-256 0 0-22c0-11-10-21-21-21-12 0-22 10-22 21l0 22-21 0c-35 0-64 28-64 64l0 341c0 35 29 64 64 64l384 0c35 0 64-29 64-64l0-341c0-36-29-64-64-64z m21 405c0 12-9 21-21 21l-384 0c-12 0-21-9-21-21l0-341c0-12 9-22 21-22l21 0 0 22c0 11 10 21 22 21 11 0 21-10 21-21l0-22 256 0 0 22c0 11 10 21 21 21 12 0 22-10 22-21l0-22 21 0c12 0 21 10 21 22z m-64-256l-298 0c-12 0-22 10-22 21 0 12 10 22 22 22l298 0c12 0 22-10 22-22 0-11-10-21-22-21z"/>
    </symbol>
  
    <symbol id="icon-card" viewBox="0 0 512 512">
      <path d="m498 94c-19-23-50-23-88-23l-305 0c-41 0-69 0-88 22-17 20-17 45-17 92l0 143c0 92 9 113 101 114l9 0c31 0 298 0 300 0 39 0 68 0 87-22 17-20 17-47 17-92l0-143c0-46 0-72-16-91z m-393 8l305 0c38 0 55 2 64 12 6 7 9 19 9 42l-452 0c1-23 2-35 9-42 9-11 28-12 65-12z m369 297c-9 11-28 11-64 12-2 0-189 0-300 0l-9 0c-71 0-71-4-71-83l0-94 453 0 0 94c0 39 0 61-9 71z"/>
    </symbol>
  
    <symbol id="icon-electricity" viewBox="0 0 512 512">
      <path d="m255 377c-9 0-15-6-15-15l0-122c0-9 6-15 15-15 8 0 15 6 15 15l0 122c0 9-7 15-15 15z m-13-377c-85 6-153 76-155 162 0 47 18 89 48 120 2 3 5 6 6 10l19 76c1 7 7 12 14 12 1 0 3 0 6-2 6-2 9-10 9-17l-12-49-2-10c-4-17-11-34-24-46-6-7-11-15-16-22-14-25-20-54-16-85 7-64 57-113 118-119 81-9 151 55 151 135 0 24-6 46-17 65-5 9-10 16-16 22-12 14-19 29-24 48l-3 10-11 48c-1 8 1 15 9 18 1 1 4 1 6 1 6 0 13-5 14-11l19-76c1-4 2-8 6-10 29-30 47-71 47-116-1-94-81-170-176-164z m101 407c0 3 0 5-1 8-2 5-4 10-5 15-4 17-11 50-11 50-8 18-26 32-46 32l-50 0c-20 0-39-14-46-34l0-2-10-46c-7-5-9-12-12-18 0-1-1-2-1-5 0-7 8-12 15-12l150 0c10 0 16 5 17 12z m-35 18l-63 0c-25 0-43 22-36 46 3 7 10 12 18 12l50 0c9 0 16-5 19-12z"/>
    </symbol>
  
    <symbol id="icon-gaz" viewBox="0 0 512 512">
      <path d="m276 8c-5-6-12-8-18-8-3 0-7 0-9 2-10 5-16 16-13 27 15 79 7 123-5 139-1 1-4 3-6 3-1 0-6-1-9-5-8-9-10-23-8-37 0-2 0-4 0-6 0-13-10-23-22-24 0 0 0 0-1 0l-2 0c-3 0-8 1-12 3-1 3-2 4-4 5-55 66-79 141-69 206 6 39 23 72 52 97-25 1-45 22-45 47 0 26 21 48 47 48l205 0c26 0 48-22 48-48 0-26-22-47-48-47l-5 0c33-30 52-66 58-105 15-116-90-242-134-297z m81 425c13 0 24 11 24 24 0 13-11 24-24 24l-206 0c-13 0-24-11-24-24 0-13 11-24 24-24z m-97-23c8-5 15-11 22-19 14-16 24-37 29-61 9 37-11 59-12 61-5 4-6 11-6 17l-33 0z m57-3c0 0 59-66-26-152 10 87-27 138-60 138-21 0-40-22-45-66-16 49-10 59-3 78-89-57-84-179 2-282-9 40 15 71 39 71 28 0 57-44 34-170 66 81 218 271 59 383z m-178 50c0 11 9 19 19 19 11 0 19-8 19-19 0-10-8-19-19-19-10 0-19 9-19 19z m82 19c11 0 20-8 20-19 0-10-9-19-20-19-10 0-19 9-19 19 0 11 10 19 19 19z m65 0c10 0 19-8 19-19 0-10-9-19-19-19-11 0-19 9-19 19 0 11 8 19 19 19z m64 0c11 0 19-8 19-19 0-10-8-19-19-19-11 0-19 9-19 19 0 11 8 19 19 19z"/>
    </symbol>
  
    <symbol id="icon-snow" viewBox="0 0 512 512">
      <path d="m469 309l-63 17-120-69 120-70 63 17c7 2 15-2 17-10 3-7-2-15-10-17l-35-10 33-19c7-3 9-13 5-19-4-7-13-10-20-6l-32 19 9-35c2-8-2-16-10-18-7-2-15 3-17 10l-18 63-120 69 0-138 47-47c6-5 6-15 0-20-6-6-15-6-21 0l-26 26 0-38c0-8-5-14-13-14-8 0-14 6-14 14l0 38-26-26c-6-6-15-6-21 0-6 6-5 15 0 20l47 47 0 138-120-69-18-63c-2-7-10-12-17-10-8 2-13 10-11 18l10 35-33-19c-6-4-15-1-19 6-4 6-2 15 5 19l33 19-36 10c-7 2-12 10-10 17 2 8 10 12 18 10l63-17 120 70-120 69-63-17c-8-2-16 2-18 10-2 7 3 15 10 18l36 9-33 19c-7 4-9 13-5 20 3 6 13 9 19 5l33-19-10 35c-2 8 3 16 11 18 7 2 15-3 17-10l18-63 120-69 0 138-47 47c-6 6-6 15 0 20 6 6 15 6 21 0l26-26 0 38c0 8 6 14 14 14 8 0 13-6 13-14l0-38 26 26c6 6 15 6 20 0 6-6 6-15 0-20l-46-47 0-138 120 69 17 63c2 7 10 12 18 10 7-2 12-10 10-18l-10-35 33 19c7 4 15 1 19-5 4-7 2-16-5-20l-32-19 35-9c7-3 12-11 10-18-2-8-9-12-17-10z"/>
    </symbol>
  
</svg>
